<svg width="7" height="4" viewBox="0 0 7 4" fill="none" xmlns="http://www.w3.org/2000/svg">
<path d="M3.89139 3.22686L0.861476 0.111828C0.791398 0.0397233 0.697849 0 0.598101 0C0.498353 0 0.404805 0.0397233 0.334726 0.111828L0.111594 0.341176C-0.0335999 0.490622 -0.0335999 0.733514 0.111594 0.882733L2.65589 3.49855L0.108771 6.11727C0.0386925 6.18937 0 6.28549 0 6.38799C0 6.4906 0.0386925 6.58672 0.108771 6.65888L0.331903 6.88817C0.402037 6.96028 0.49553 7 0.595278 7C0.695026 7 0.788575 6.96028 0.858653 6.88817L3.89139 3.77029C3.96164 3.69796 4.00022 3.60139 4 3.49872C4.00022 3.39566 3.96164 3.29914 3.89139 3.22686Z" transform="translate(7) rotate(90)" fill="white"/>
</svg>
