<svg width="52" height="34" viewBox="0 0 52 34" fill="none" xmlns="http://www.w3.org/2000/svg">
<rect width="51.6813" height="33.2879" fill="black" fill-opacity="0"/>
<rect width="24.5086" height="22.0565" fill="black" fill-opacity="0" transform="translate(3.31006)"/>
<rect width="24.5086" height="22.0565" fill="black" fill-opacity="0" transform="translate(3.31006)"/>
<path d="M20.7418 0L3.31006 22.0565H10.3868L27.8186 0H20.7418Z" fill="#EFAE00"/>
<rect width="24.5085" height="22.0565" fill="black" fill-opacity="0" transform="translate(25.2014)"/>
<rect width="24.5085" height="22.0565" fill="black" fill-opacity="0" transform="translate(25.2014)"/>
<path d="M41.8982 0L42.3484 0.36014L25.2014 22.0565H32.2781L49.7099 0H41.8982Z" fill="#EFAE00"/>
<rect width="24.5086" height="22.0565" fill="black" fill-opacity="0" transform="translate(14.2556)"/>
<rect width="24.5086" height="22.0565" fill="black" fill-opacity="0" transform="translate(14.2556)"/>
<path d="M31.6874 0L14.2556 22.0565H21.3323L38.7642 0H31.6874Z" fill="black"/>
<rect width="16.8727" height="21.3493" fill="black" fill-opacity="0"/>
<rect width="16.8727" height="21.3493" fill="black" fill-opacity="0"/>
<path d="M9.79604 0L0 12.3951V21.3493L16.8727 0H9.79604Z" fill="black"/>
<rect width="15.5345" height="19.6559" fill="black" fill-opacity="0" transform="translate(36.147 2.40063)"/>
<rect width="15.5345" height="19.6559" fill="black" fill-opacity="0" transform="translate(36.147 2.40063)"/>
<path d="M36.147 22.0565H43.2084L51.6815 11.3548V2.40063L36.147 22.0565Z" fill="black"/>
<rect width="13.1222" height="8.18452" fill="black" fill-opacity="0" transform="translate(37.0449 25.1034)"/>
<rect width="13.1222" height="8.18452" fill="black" fill-opacity="0" transform="translate(37.0449 25.1034)"/>
<path d="M46.9068 27.5496V25.1034H40.3053V27.5496C38.5046 27.5496 37.0449 29.0183 37.0449 30.8301V33.2879H50.1671V30.8301C50.1671 29.0183 48.7074 27.5496 46.9068 27.5496Z" fill="black"/>
<rect width="13.1222" height="8.18452" fill="black" fill-opacity="0" transform="translate(1.51416 25.1034)"/>
<rect width="13.1222" height="8.18452" fill="black" fill-opacity="0" transform="translate(1.51416 25.1034)"/>
<path d="M11.376 27.5496V25.1034H4.77453V27.5496C2.97385 27.5496 1.51416 29.0183 1.51416 30.8301V33.2879H14.6364V30.8301C14.6364 29.0183 13.1767 27.5496 11.376 27.5496Z" fill="black"/>
<rect width="0.383975" height="0.307227" fill="black" fill-opacity="0" transform="translate(51.2974)"/>
<rect width="0.383975" height="0.307227" fill="black" fill-opacity="0" transform="translate(51.2974)"/>
<path d="M51.2974 0L51.6813 0.307227V0H51.2974Z" fill="black"/>
<rect width="4.60156" height="5.81191" fill="black" fill-opacity="0" transform="translate(47.0798 16.2446)"/>
<rect width="4.60156" height="5.81191" fill="black" fill-opacity="0" transform="translate(47.0798 16.2446)"/>
<path d="M47.0798 22.0565H51.6814V16.2446L47.0798 22.0565Z" fill="#EFAE00"/>
<rect width="5.9271" height="7.49968" fill="black" fill-opacity="0"/>
<rect width="5.9271" height="7.49968" fill="black" fill-opacity="0"/>
<path d="M0 0V7.49968L5.9271 0H0Z" fill="#EFAE00"/>
</svg>
