<svg width="19" height="19" viewBox="0 0 19 19" fill="none" xmlns="http://www.w3.org/2000/svg">
<rect width="19" height="19" fill="black" fill-opacity="0"/>
<circle cx="9.5" cy="9.5" r="9" fill="white" stroke="#333333"/>
<path d="M10.2 9.50016L13.3131 6.3869C13.5065 6.19364 13.5065 5.88007 13.3131 5.68682C13.1197 5.49339 12.8065 5.49339 12.613 5.68682L9.49992 8.80008L6.38662 5.68682C6.19321 5.49339 5.87998 5.49339 5.68657 5.68682C5.49315 5.88007 5.49315 6.19364 5.68657 6.3869L8.79986 9.50016L5.68657 12.6134C5.49315 12.8067 5.49315 13.1203 5.68657 13.3135C5.78327 13.4101 5.91002 13.4584 6.03659 13.4584C6.16317 13.4584 6.28992 13.4101 6.38662 13.3133L9.49992 10.2001L12.613 13.3133C12.7098 13.4101 12.8365 13.4584 12.9631 13.4584C13.0897 13.4584 13.2164 13.4101 13.3131 13.3133C13.5065 13.1201 13.5065 12.8065 13.3131 12.6133L10.2 9.50016Z" fill="#333333"/>
</svg>
