<svg width="49" height="42" viewBox="0 0 49 42" fill="none" xmlns="http://www.w3.org/2000/svg">
<path d="M0.945217 0C0.423457 0 0 0.422282 0 0.942593C0 1.4629 0.423457 1.88519 0.945217 1.88519C1.46698 1.88519 1.89043 1.4629 1.89043 0.942593C1.89043 0.422282 1.46698 0 0.945217 0Z" transform="translate(23.2523 11.3109)" fill="black"/>
<path d="M48.3947 12.2456C48.3945 12.2208 48.3931 12.196 48.3909 12.1713C48.3905 12.166 48.3905 12.1607 48.39 12.1554C48.387 12.1267 48.3825 12.0982 48.3769 12.0699C48.3745 12.0576 48.3712 12.0457 48.3682 12.0335C48.3644 12.0173 48.3605 12.0011 48.3558 11.9851C48.3518 11.9718 48.3472 11.9588 48.3426 11.9457C48.3376 11.9311 48.3325 11.9166 48.3267 11.9023C48.3216 11.8894 48.3159 11.8767 48.3101 11.864C48.3037 11.85 48.2971 11.8361 48.29 11.8223C48.2836 11.81 48.2771 11.7981 48.2703 11.7862C48.2626 11.7726 48.2543 11.7592 48.2458 11.746C48.2385 11.7345 48.231 11.7232 48.2232 11.7121C48.2141 11.6993 48.2045 11.6867 48.1948 11.6743C48.1863 11.6635 48.1779 11.6527 48.169 11.6423C48.1654 11.6381 48.1623 11.6336 48.1585 11.6294L38.1392 0.318314C38.1368 0.315675 38.1342 0.313412 38.1318 0.310867C38.1162 0.293618 38.0998 0.277311 38.0829 0.261192C38.0765 0.25516 38.0705 0.248751 38.064 0.242906C38.044 0.224903 38.023 0.20803 38.0014 0.191723C37.9972 0.188613 37.9934 0.185031 37.9891 0.182015C37.9633 0.163257 37.9366 0.145537 37.9086 0.12923C37.9082 0.129041 37.9079 0.128758 37.9075 0.12857C37.8521 0.0964274 37.7928 0.0692807 37.7296 0.0482608C37.7292 0.0480723 37.7286 0.0479783 37.7281 0.047884C37.7187 0.0447735 37.7088 0.0426995 37.6993 0.0398717C37.6772 0.0332736 37.655 0.0266756 37.6328 0.0217742C37.6251 0.0200775 37.6172 0.0192292 37.6094 0.0178153C37.5846 0.0130081 37.56 0.00867188 37.5352 0.0058441C37.5276 0.00499577 37.5198 0.00490167 37.5121 0.00424185C37.487 0.00207389 37.462 0.000377241 37.437 0.000282982C37.4349 0.000282982 37.4328 0 37.4308 0H10.9645C10.9623 0 10.9602 0.00028293 10.9579 0.00037719C10.9336 0.000565708 10.9091 0.00226236 10.8846 0.00433606C10.8763 0.00509014 10.868 0.00518454 10.8597 0.00603288C10.8357 0.00876639 10.8118 0.0130078 10.7878 0.0176265C10.7792 0.0192289 10.7706 0.0201716 10.7622 0.0219626C10.7405 0.0267698 10.7188 0.0332737 10.6971 0.0396833C10.6872 0.0426053 10.6769 0.0447734 10.6671 0.0479782C10.6666 0.0481667 10.666 0.0482608 10.6655 0.0483551C10.6023 0.0693749 10.5429 0.0965216 10.4877 0.128664C10.4873 0.128853 10.487 0.129135 10.4866 0.129324C10.4586 0.145631 10.4319 0.163257 10.4061 0.182109C10.4018 0.18522 10.3979 0.188707 10.3938 0.191912C10.3722 0.208219 10.3513 0.225091 10.3313 0.243001C10.3248 0.248939 10.3186 0.255349 10.3123 0.261381C10.2955 0.277405 10.2789 0.293806 10.2634 0.310961C10.2611 0.313601 10.2584 0.315863 10.2561 0.318408L0.236777 11.6295C0.23309 11.6337 0.229971 11.6382 0.226285 11.6424C0.2174 11.6528 0.208893 11.6635 0.20048 11.6744C0.190745 11.6868 0.181198 11.6994 0.172124 11.7122C0.164279 11.7233 0.156811 11.7346 0.149439 11.7461C0.140932 11.7594 0.132708 11.7727 0.124958 11.7863C0.118152 11.7982 0.111536 11.8101 0.105297 11.8224C0.098208 11.8361 0.091497 11.8501 0.085164 11.8641C0.0793982 11.8768 0.0737269 11.8894 0.0685282 11.9024C0.0627624 11.9167 0.0576582 11.9312 0.0526486 11.9458C0.0481115 11.9589 0.04348 11.9719 0.0395101 11.9852C0.034784 12.0012 0.0309086 12.0174 0.0270332 12.0336C0.024103 12.0458 0.0207948 12.0577 0.0183372 12.07C0.0126659 12.0984 0.00822338 12.1268 0.00529321 12.1555C0.00472608 12.1608 0.00472608 12.1661 0.004348 12.1714C0.002174 12.1961 0.000756173 12.2209 0.00056713 12.2457C0.000378087 12.2482 0 12.2507 0 12.2534C0 12.2612 0.000945217 12.2687 0.00113426 12.2763C0.00160687 12.2959 0.00236304 12.3154 0.00406443 12.335C0.00510417 12.3473 0.00661652 12.3595 0.00812886 12.3716C0.0103029 12.3885 0.0127604 12.4053 0.0158796 12.422C0.0182427 12.4352 0.0207948 12.4483 0.0237249 12.4612C0.0272222 12.4765 0.0312867 12.4918 0.0355401 12.5071C0.0392265 12.5204 0.0429128 12.5337 0.0471663 12.5467C0.0519869 12.5614 0.0576582 12.5759 0.063235 12.5905C0.0681501 12.6032 0.0727817 12.6161 0.0781694 12.6286C0.0845969 12.6434 0.0920641 12.6578 0.0993423 12.6723C0.105108 12.6839 0.110401 12.6958 0.11664 12.7071C0.125336 12.7228 0.13526 12.7381 0.144902 12.7535C0.150857 12.7629 0.156244 12.7727 0.162483 12.7819C0.178551 12.8055 0.195754 12.8286 0.214186 12.851L0.215131 12.8522C0.215509 12.8526 0.215887 12.8531 0.216266 12.8536L23.4665 41.1288C23.4685 41.1312 23.4708 41.1332 23.4728 41.1356C23.493 41.1596 23.514 41.1829 23.5364 41.2047C23.5389 41.2072 23.5418 41.2095 23.5444 41.2119C23.5643 41.231 23.5852 41.249 23.6067 41.2661C23.6134 41.2715 23.6202 41.2768 23.627 41.282C23.6493 41.2989 23.6722 41.3149 23.6959 41.3297C23.6985 41.3313 23.7009 41.3331 23.7035 41.3347C23.7297 41.3506 23.7568 41.365 23.7844 41.3784C23.7916 41.3819 23.7989 41.3851 23.8061 41.3884C23.8292 41.3989 23.8527 41.4085 23.8766 41.4171C23.8826 41.4192 23.8884 41.4216 23.8943 41.4236C23.9236 41.4335 23.9535 41.4419 23.9838 41.449C23.9898 41.4504 23.9958 41.4514 24.0019 41.4526C24.0268 41.4579 24.0521 41.4621 24.0777 41.4653C24.0861 41.4664 24.0944 41.4675 24.1028 41.4683C24.134 41.4714 24.1655 41.4736 24.1974 41.4736C24.2292 41.4736 24.2607 41.4714 24.2919 41.4683C24.3003 41.4675 24.3086 41.4664 24.317 41.4653C24.3425 41.4621 24.3678 41.4579 24.3927 41.4526C24.3988 41.4514 24.4048 41.4503 24.4108 41.449C24.4411 41.442 24.471 41.4335 24.5003 41.4236C24.5063 41.4216 24.5121 41.4191 24.518 41.4171C24.5419 41.4084 24.5654 41.3989 24.5885 41.3884C24.5958 41.3851 24.603 41.3819 24.6102 41.3784C24.6378 41.365 24.665 41.3506 24.6911 41.3347C24.6937 41.3331 24.6961 41.3313 24.6987 41.3297C24.7224 41.3149 24.7452 41.2989 24.7675 41.2821C24.7744 41.2769 24.7812 41.2715 24.7879 41.2661C24.8094 41.249 24.8303 41.231 24.8502 41.212C24.8529 41.2095 24.8556 41.2072 24.8582 41.2047C24.8807 41.1828 24.9017 41.1596 24.9219 41.1356C24.9238 41.1332 24.9261 41.1313 24.9281 41.1288L48.1783 12.8536C48.1787 12.8531 48.1791 12.8526 48.1795 12.8522L48.1804 12.851C48.1989 12.8286 48.2162 12.8055 48.2321 12.7819C48.2384 12.7727 48.2438 12.7629 48.2497 12.7535C48.2594 12.7381 48.2693 12.7228 48.278 12.7071C48.2842 12.6958 48.2895 12.6839 48.2953 12.6723C48.3026 12.6578 48.3099 12.6434 48.3164 12.6286C48.3219 12.6161 48.3265 12.6032 48.3314 12.5905C48.337 12.576 48.3426 12.5615 48.3475 12.5467C48.3517 12.5337 48.3554 12.5204 48.3591 12.5071C48.3633 12.4918 48.3674 12.4766 48.3709 12.4612C48.3738 12.4482 48.3764 12.4352 48.3787 12.422C48.3818 12.4052 48.3843 12.3885 48.3865 12.3716C48.388 12.3595 48.3895 12.3472 48.3906 12.335C48.3923 12.3154 48.393 12.2958 48.3935 12.2763C48.3941 12.2686 48.3951 12.2611 48.3951 12.2534C48.3951 12.2507 48.3947 12.2482 48.3947 12.2456ZM37.8084 2.79262L45.3538 11.3108H34.9611L37.8084 2.79262ZM36.1191 1.8849L33.2895 10.3501L26.2156 1.8849H36.1191ZM22.1795 1.8849L15.1055 10.3501L12.2759 1.8849H22.1795ZM10.5867 2.79262L13.434 11.3108H3.04133L10.5867 2.79262ZM2.94265 13.196H14.0641L21.6815 35.9849L2.94265 13.196ZM24.1975 37.5504L16.0568 13.196H20.4167C20.9387 13.196 21.3619 12.774 21.3619 12.2534C21.3619 11.7328 20.9387 11.3108 20.4167 11.3108H16.7635L24.1975 2.41464L31.6316 11.3108H27.8896C27.3675 11.3108 26.9443 11.7328 26.9443 12.2534C26.9443 12.774 27.3675 13.196 27.8896 13.196H32.3383L24.1975 37.5504ZM26.7135 35.9849L34.331 13.196H45.4524L26.7135 35.9849Z" fill="black"/>
</svg>
