<svg width="35" height="34" viewBox="0 0 35 34" fill="none" xmlns="http://www.w3.org/2000/svg">
<path d="M33.0483 16.6458C33.0483 25.2657 25.8953 32.2917 17.0241 32.2917C8.15295 32.2917 1 25.2657 1 16.6458C1 8.02595 8.15295 1 17.0241 1C25.8953 1 33.0483 8.02595 33.0483 16.6458Z" stroke="#333333" stroke-width="2"/>
<path d="M9.82914 10.8398H6.79139V21.7214H2.18894V10.8398H0V7.01553H2.18894V4.54082C2.18894 2.77114 3.04868 0 6.83236 0L10.2416 0.0139459V3.72601H7.76796C7.36222 3.72601 6.79169 3.92422 6.79169 4.76841V7.01909H10.2312L9.82914 10.8398Z" transform="translate(11.4749 6.45764)" fill="#333333"/>
</svg>
