<svg width="48" height="48" viewBox="0 0 48 48" fill="none" xmlns="http://www.w3.org/2000/svg">
<path d="M47.3892 20.7129L45.06 19.3847C44.8943 18.5957 44.684 17.8166 44.43 17.051L45.7752 14.7522C45.9039 14.5318 45.9178 14.2635 45.8126 14.0311C45.1425 12.5525 44.3215 11.1457 43.3625 9.83267C43.2125 9.6271 42.9721 9.50532 42.7161 9.50532H42.7138L40.0305 9.51304C39.4903 8.91335 38.9161 8.34444 38.3111 7.80886L38.3189 5.14945C38.3195 4.89492 38.1968 4.65562 37.989 4.50604C36.6641 3.55567 35.2445 2.74211 33.7525 2.07812C33.5182 1.97326 33.2472 1.98711 33.025 2.11522L30.706 3.44843C29.9363 3.19736 29.153 2.98962 28.3596 2.82629L27.0185 0.410045C26.8781 0.157291 26.6101 0.00019785 26.319 0H21.5904C21.2993 0.00019785 21.0313 0.157192 20.891 0.410045L19.5498 2.82629C18.7567 2.98962 17.9736 3.19736 17.2042 3.44843L14.8851 2.11532C14.6628 1.98721 14.392 1.97346 14.1576 2.07822C12.6653 2.74211 11.2455 3.55567 9.92032 4.50614C9.71262 4.65571 9.58995 4.89501 9.59045 5.14955L9.59823 7.80856C8.99348 8.34424 8.41936 8.91316 7.87889 9.51264L5.19567 9.50532C4.93486 9.48663 4.68513 9.61266 4.54689 9.83267C3.58751 11.1455 2.76656 12.5523 2.09683 14.0312C1.99163 14.2636 2.0055 14.5319 2.13426 14.7523L3.47941 17.0511C3.22619 17.8137 3.01659 18.5898 2.8517 19.3759L0.413318 20.7055C0.1583 20.8446 4.71419e-08 21.1103 4.71419e-08 21.3988V26.0854C-9.9764e-05 26.3738 0.1583 26.6396 0.413318 26.7786L2.8517 28.1083C3.01659 28.8943 3.22619 29.6704 3.47941 30.433L2.13426 32.7319C2.0055 32.9523 1.99163 33.2206 2.09683 33.4529C2.76696 34.9316 3.58791 36.3384 4.54689 37.6514C4.69691 37.857 4.93736 37.9788 5.19337 37.9788H5.19567L7.87889 37.971C8.41917 38.5707 8.99328 39.1396 9.59833 39.6752L9.59055 42.3346C9.58995 42.5892 9.71262 42.8285 9.92042 42.978C11.2453 43.9284 12.6649 44.742 14.1569 45.406C14.3915 45.5095 14.6618 45.4958 14.8844 45.3689L17.2034 44.0353C17.9731 44.2866 18.7564 44.4945 19.5498 44.6579L20.8911 47.0742C21.0314 47.327 21.2994 47.4841 21.5905 47.4843H26.3191C26.6102 47.4841 26.8782 47.3271 27.0186 47.0742L28.3598 44.6579C29.1529 44.4946 29.936 44.2868 30.7054 44.0357L33.0244 45.369C33.247 45.4959 33.5174 45.5097 33.7519 45.4061C35.244 44.7417 36.6638 43.9282 37.9892 42.9781C38.197 42.8286 38.3197 42.5893 38.3191 42.3347L38.3113 39.6757C38.9162 39.1401 39.4903 38.5712 40.0306 37.9716L42.7139 37.979H42.7162C42.9722 37.979 43.2126 37.8573 43.3626 37.6516C44.322 36.3388 45.143 34.932 45.8127 33.453C45.9179 33.2207 45.904 32.9524 45.7753 32.732L44.4301 30.4331C44.6841 29.6676 44.8945 28.8885 45.0601 28.0995L47.3893 26.7713C47.6372 26.6304 47.7901 26.3687 47.7901 26.0854V21.3988C47.7901 21.1155 47.6371 20.8538 47.3892 20.7129ZM46.1931 25.6275L43.9497 26.9065C43.7477 27.0215 43.6065 27.2183 43.563 27.4451C43.3802 28.4001 43.1263 29.3404 42.8035 30.2583C42.7268 30.4762 42.7499 30.7164 42.8667 30.916L44.1861 33.1708C43.6511 34.2956 43.0219 35.3741 42.3052 36.3948L39.6727 36.3874H39.6704C39.4383 36.3872 39.2176 36.4875 39.0661 36.6618C38.4255 37.3967 37.7317 38.0844 36.9903 38.7195C36.8138 38.8703 36.7127 39.0899 36.7135 39.3208L36.7213 41.9291C35.6913 42.6396 34.6031 43.2633 33.4681 43.7937L31.1935 42.486C30.9918 42.3708 30.7498 42.348 30.5299 42.4234C29.6036 42.7432 28.6546 42.9947 27.6908 43.1757C27.4567 43.2194 27.2547 43.3647 27.1402 43.5718L25.8472 45.9013H22.0621L20.7693 43.5719C20.6548 43.3648 20.4528 43.2195 20.2187 43.1758C19.2552 42.995 18.3064 42.7435 17.3803 42.4235C17.1603 42.3472 16.9177 42.3699 16.716 42.4857L14.4414 43.7938C13.3062 43.2636 12.218 42.64 11.1881 41.9293L11.1959 39.3206C11.1965 39.0897 11.0954 38.8701 10.9191 38.7193C10.1777 38.0843 9.48395 37.3966 8.84336 36.6616C8.69185 36.4873 8.47117 36.387 8.23901 36.3872H8.23671L5.60499 36.395C4.88755 35.3745 4.25814 34.2962 3.72335 33.171L5.04276 30.9162C5.15953 30.7166 5.18259 30.4764 5.10594 30.2585C4.78305 29.3407 4.52923 28.4003 4.34647 27.4453C4.30216 27.2134 4.15573 27.0132 3.94723 26.8992L1.59698 25.6174V21.8667L3.94723 20.5849C4.15573 20.471 4.30216 20.2709 4.34647 20.039C4.52923 19.084 4.78315 18.1437 5.10594 17.2257C5.18259 17.0079 5.15953 16.7677 5.04276 16.5681L3.72335 14.3133C4.25834 13.1885 4.88755 12.11 5.60419 11.0893L8.23671 11.0966H8.23901C8.47117 11.0966 8.69175 10.9964 8.84336 10.8223C9.48415 10.0876 10.1779 9.39987 10.9191 8.76457C11.0954 8.61371 11.1965 8.3941 11.1959 8.1633L11.1881 5.55485C12.2181 4.84427 13.3062 4.22064 14.4414 3.6903L16.716 4.998C16.9174 5.11384 17.1597 5.13669 17.3795 5.06062C18.3059 4.74079 19.2549 4.48932 20.2186 4.30829C20.4526 4.26437 20.6545 4.11914 20.7692 3.91219L22.0622 1.5828H25.8473L27.1401 3.91219C27.2547 4.11944 27.457 4.26476 27.6914 4.30829C28.655 4.48932 29.6037 4.74079 30.5298 5.06062C30.7496 5.13659 30.9919 5.11374 31.1934 4.998L33.468 3.6903C34.6031 4.22044 35.6913 4.84417 36.7212 5.55485L36.7134 8.1636C36.7128 8.39449 36.8139 8.61411 36.9902 8.76487C37.7316 9.39997 38.4254 10.0877 39.066 10.8226C39.2175 10.9969 39.4382 11.0971 39.6703 11.0969H39.6726L42.3043 11.0892C43.0218 12.1096 43.6512 13.188 44.186 14.3132L42.8666 16.568C42.7498 16.7676 42.7267 17.0078 42.8034 17.2256C43.1263 18.1435 43.3801 19.0838 43.5628 20.0389C43.6064 20.2657 43.7476 20.4625 43.9496 20.5775L46.1931 21.8566V25.6275Z" fill="black"/>
<path d="M17.5668 0C7.86491 0 0 7.7951 0 17.4108C0.0109792 27.0221 7.86941 34.8108 17.5668 34.8217C27.2686 34.8217 35.1335 27.0265 35.1335 17.4108C35.1335 7.7951 27.2687 0 17.5668 0ZM17.5668 33.2388C8.74685 33.2388 1.59698 26.1524 1.59698 17.4108C1.60696 8.67336 8.75104 1.59269 17.5668 1.5828C26.3867 1.5828 33.5365 8.66921 33.5365 17.4108C33.5365 26.1524 26.3867 33.2388 17.5668 33.2388Z" transform="translate(6.38788 6.33124)" fill="black"/>
<path d="M19.9621 5.53961C19.7845 5.53961 19.612 5.59827 19.4717 5.7064L13.5743 10.2531V6.33121C13.5743 5.89406 13.2168 5.53961 12.7757 5.53961C12.5981 5.53961 12.4256 5.59827 12.2853 5.7064L6.38791 10.2531V0.791401C6.38801 0.354449 6.03068 9.89459e-05 5.58982 2.07195e-08C5.58972 2.07195e-08 5.58952 2.07195e-08 5.58942 2.07195e-08H0.798489C0.357623 -9.89044e-05 9.9832e-05 0.354053 2.0905e-08 0.791006C2.0905e-08 0.791105 2.0905e-08 0.791302 2.0905e-08 0.791401V18.2022C-9.97902e-05 18.6392 0.357224 18.9935 0.79809 18.9936C0.798189 18.9936 0.798389 18.9936 0.798489 18.9936H19.9622C20.4031 18.9937 20.7606 18.6396 20.7607 18.2026C20.7607 18.2025 20.7607 18.2023 20.7607 18.2022V6.33121C20.7608 5.89406 20.4033 5.53961 19.9621 5.53961ZM19.1637 17.4108H1.59698V1.5828H4.79093V11.871C4.79093 12.3082 5.14846 12.6626 5.58952 12.6626C5.76718 12.6626 5.93966 12.604 6.07989 12.4958L11.9773 7.94913V11.871C11.9773 12.3082 12.3349 12.6626 12.7759 12.6626C12.9536 12.6626 13.1261 12.604 13.2663 12.4958L19.1637 7.94913V17.4108Z" transform="translate(13.5743 14.2452)" fill="black"/>
<path d="M6.73246 1.04818C6.38082 1.42885 6.22402 1.58297 5.85831 1.58297C5.49181 1.58297 5.3343 1.42835 4.98267 1.04818C4.1733 -0.075905 2.59788 -0.336869 1.46373 0.465315C1.23646 0.626068 1.03774 0.823028 0.875642 1.04818C0.524008 1.42845 0.366506 1.58297 0 1.58297V3.16577C0.811265 3.15103 1.56963 2.76404 2.05311 2.11816C2.40475 1.73749 2.56235 1.58297 2.92966 1.58297C3.29616 1.58297 3.45366 1.73759 3.8053 2.11776C4.61317 3.24115 6.18699 3.50261 7.32034 2.70191C7.54831 2.54086 7.74754 2.34331 7.91003 2.11736C8.26166 1.7371 8.41847 1.58297 8.78338 1.58297V0.00016823C7.97251 0.015007 7.21484 0.4022 6.73246 1.04818Z" transform="translate(16.7684 10.288)" fill="black"/>
</svg>
