<svg width="35" height="34" viewBox="0 0 35 34" fill="none" xmlns="http://www.w3.org/2000/svg">
<path d="M33.0483 16.6458C33.0483 25.2657 25.8953 32.2917 17.0241 32.2917C8.15295 32.2917 1 25.2657 1 16.6458C1 8.02595 8.15295 1 17.0241 1C25.8953 1 33.0483 8.02595 33.0483 16.6458Z" transform="translate(0.0682373)" stroke="#333333" stroke-width="2"/>
<path d="M13.4473 0H6.11239C2.73713 0 0 2.6763 0 5.97656V13.1484C0 16.4487 2.73713 19.125 6.11239 19.125H13.4473C16.8225 19.125 19.5597 16.4487 19.5597 13.1484V5.97656C19.5597 2.6763 16.8225 0 13.4473 0ZM17.7259 13.1484C17.7259 15.4554 15.8066 17.332 13.4473 17.332H6.11239C3.75301 17.332 1.83372 15.4554 1.83372 13.1484V5.97656C1.83372 3.66961 3.75301 1.79297 6.11239 1.79297H13.4473C15.8066 1.79297 17.7259 3.66961 17.7259 5.97656V13.1484Z" transform="translate(7.3125 7.08325)" fill="#333333"/>
<path d="M4.88991 0C2.18946 0 0 2.1408 0 4.78125C0 7.4217 2.18946 9.5625 4.88991 9.5625C7.59037 9.5625 9.77983 7.4217 9.77983 4.78125C9.77983 2.1408 7.59037 0 4.88991 0ZM4.88991 7.76953C3.20534 7.76953 1.83372 6.42839 1.83372 4.78125C1.83372 3.13291 3.20534 1.79297 4.88991 1.79297C6.57449 1.79297 7.94611 3.13291 7.94611 4.78125C7.94611 6.42839 6.57449 7.76953 4.88991 7.76953Z" transform="translate(12.2023 11.8645)" fill="#333333"/>
<path d="M0.651581 1.2742C1.01144 1.2742 1.30316 0.988963 1.30316 0.637102C1.30316 0.28524 1.01144 0 0.651581 0C0.291723 0 0 0.28524 0 0.637102C0 0.988963 0.291723 1.2742 0.651581 1.2742Z" transform="translate(21.6973 10.8689)" fill="#333333"/>
</svg>
