<svg width="46" height="46" viewBox="0 0 46 46" fill="none" xmlns="http://www.w3.org/2000/svg">
<path d="M0.897956 0C0.402284 0 0 0.399709 0 0.892209C0 1.38471 0.402284 1.78442 0.897956 1.78442C1.39363 1.78442 1.79591 1.38471 1.79591 0.892209C1.79591 0.399709 1.39363 0 0.897956 0Z" transform="translate(37.8936 8.92209)" fill="black"/>
<path d="M0.897956 0C0.402284 0 0 0.399709 0 0.892209C0 1.38471 0.402284 1.78442 0.897956 1.78442C1.39363 1.78442 1.79591 1.38471 1.79591 0.892209C1.79591 0.399709 1.39363 0 0.897956 0Z" transform="translate(6.28558 8.92209)" fill="black"/>
<path d="M5.17608 7.7481H4.10213C3.76647 5.17818 2.95544 2.72916 1.68268 0.458307C1.4414 0.0279052 0.89463 -0.126892 0.461276 0.112844C0.0280128 0.35258 -0.127691 0.895934 0.11359 1.32642C1.23675 3.33059 1.96751 5.48662 2.29131 7.7481H1.58426C1.08832 7.7481 0.686305 8.14754 0.686305 8.6403V12.2091C0.686305 12.7019 1.08832 13.1013 1.58426 13.1013H5.17608C5.67202 13.1013 6.07404 12.7019 6.07404 12.2091V8.6403C6.07404 8.14754 5.67202 7.7481 5.17608 7.7481ZM4.27813 11.3169H2.48222V9.53251H3.29738C3.29765 9.53251 3.29801 9.53251 3.29828 9.53251C3.29864 9.53251 3.29891 9.53251 3.29927 9.53251H4.27813V11.3169Z" transform="translate(39.9012 11.8805)" fill="black"/>
<path d="M19.7533 17.1858C19.7528 17.172 19.7524 17.1581 19.7513 17.1443C19.7496 17.1254 19.747 17.1068 19.7442 17.0882C19.7425 17.0768 19.7412 17.0654 19.739 17.0539C19.7348 17.0321 19.7294 17.0107 19.7238 16.9893C19.7216 16.9812 19.7199 16.9731 19.7175 16.9651C19.7095 16.9384 19.7002 16.9123 19.6897 16.8867C19.6886 16.8839 19.6878 16.8809 19.6866 16.8782C19.6742 16.8484 19.6603 16.8194 19.6448 16.7914L10.6655 0.464305C10.5081 0.178085 10.2059 0 9.87751 0C9.54913 0 9.24697 0.178085 9.08956 0.464395L0.11018 16.7915C0.0947348 16.8195 0.0808154 16.8485 0.0684236 16.8783C0.0672563 16.881 0.0664492 16.8839 0.0652818 16.8867C0.0548655 16.9123 0.0455263 16.9385 0.0375345 16.9652C0.03511 16.9732 0.0334046 16.9813 0.0312495 16.9894C0.0255026 17.0108 0.0202041 17.0321 0.0160735 17.054C0.0139184 17.0654 0.0125709 17.0768 0.010775 17.0883C0.00799137 17.1068 0.0053884 17.1255 0.00377208 17.1444C0.00260474 17.1582 0.00215484 17.1721 0.00170586 17.1859C0.00125689 17.1971 0 17.2082 0 17.2196C0 17.2255 0.000807667 17.2311 0.000897462 17.237C0.00116685 17.251 0.00206499 17.2649 0.00305274 17.279C0.00422008 17.2967 0.00565689 17.3144 0.00790178 17.3319C0.0095181 17.3442 0.0114939 17.3564 0.0135592 17.3687C0.0167919 17.388 0.0206529 17.4071 0.0251426 17.4259C0.0276569 17.4365 0.0304402 17.4471 0.0334034 17.4577C0.0390605 17.478 0.045527 17.498 0.052531 17.5177C0.0545065 17.5233 0.0557634 17.529 0.0579185 17.5347L3.29631 26.0614C3.03653 26.1894 2.79623 26.3593 2.58512 26.569C2.07616 27.0747 1.79591 27.7468 1.79591 28.4614C1.79591 29.6245 2.54669 30.6163 3.59182 30.9846V35.8668C3.59182 36.3595 3.99384 36.759 4.48978 36.759H15.2652C15.7612 36.759 16.1632 36.3595 16.1632 35.8668V30.9861C16.5376 30.8549 16.8808 30.6412 17.17 30.3539C17.6789 29.8482 17.9591 29.1761 17.9591 28.4614C17.9591 27.4111 17.3468 26.5006 16.4584 26.0626L19.6972 17.5347C19.6993 17.529 19.7006 17.5233 19.7026 17.5177C19.7096 17.498 19.7161 17.478 19.7217 17.4577C19.7247 17.4471 19.7274 17.4365 19.73 17.4259C19.7345 17.4071 19.7382 17.388 19.7416 17.3687C19.7436 17.3564 19.7457 17.3442 19.7472 17.3319C19.7495 17.3144 19.7509 17.2967 19.7521 17.279C19.753 17.2649 19.7539 17.251 19.7542 17.237C19.7543 17.2312 19.7551 17.2255 19.7551 17.2196C19.755 17.2082 19.7538 17.1971 19.7533 17.1858ZM9.87751 16.3274C10.3726 16.3274 10.7755 16.7277 10.7755 17.2196C10.7755 17.7116 10.3726 18.1118 9.87751 18.1118C9.38238 18.1118 8.97956 17.7116 8.97956 17.2196C8.97956 16.7277 9.38238 16.3274 9.87751 16.3274ZM14.3673 34.9746H5.38773V31.1381H14.3673V34.9746ZM15.9 29.0921C15.7303 29.2608 15.5048 29.3537 15.2652 29.3537H4.48978C3.99465 29.3537 3.59182 28.9534 3.59182 28.4614C3.59182 28.2234 3.6853 27.9994 3.85501 27.8308C4.02482 27.6621 4.2502 27.5692 4.48978 27.5692H15.2592C15.2612 27.5692 15.2632 27.5695 15.2652 27.5695C15.2661 27.5695 15.2672 27.5694 15.2682 27.5694C15.762 27.571 16.1633 27.9705 16.1633 28.4614C16.1632 28.6995 16.0697 28.9235 15.9 29.0921ZM14.6443 25.7848H5.11071L2.19658 18.1118H4.48978C4.98572 18.1118 5.38773 17.7124 5.38773 17.2196C5.38773 16.7269 4.98572 16.3274 4.48978 16.3274H2.41191L8.97956 4.38556V14.6965C7.93443 15.0648 7.18364 16.0564 7.18364 17.2196C7.18364 18.6955 8.39211 19.8962 9.87751 19.8962C11.3629 19.8962 12.5714 18.6955 12.5714 17.2196C12.5714 16.0565 11.8206 15.0648 10.7755 14.6965V4.38556L17.3431 16.3274H15.2652C14.7693 16.3274 14.3673 16.7269 14.3673 17.2196C14.3673 17.7124 14.7693 18.1118 15.2652 18.1118H17.5584L14.6443 25.7848Z" transform="translate(13.11 8.92209)" fill="black"/>
<path d="M5.61267 0.112921C5.17932 -0.126905 4.63246 0.0278034 4.39127 0.458383C3.1186 2.72923 2.30748 5.17826 1.97191 7.74817H0.897956C0.402015 7.74817 0 8.14761 0 8.64038V12.2092C0 12.702 0.402015 13.1014 0.897956 13.1014H4.48978C4.98572 13.1014 5.38773 12.702 5.38773 12.2092V8.64038C5.38773 8.14761 4.98572 7.74817 4.48978 7.74817H3.78264C4.10653 5.48669 4.8372 3.33067 5.96036 1.3265C6.20164 0.896011 6.04603 0.352657 5.61267 0.112921ZM3.59182 11.317H1.79591V9.53259H2.77477C2.77513 9.53259 2.7754 9.53259 2.77576 9.53259C2.77603 9.53259 2.77639 9.53259 2.77666 9.53259H3.59182V11.317Z" transform="translate(-6.10352e-05 11.8804)" fill="black"/>
<path d="M43.2815 0C42.1109 0 41.1127 0.745976 40.742 1.78442H25.6815V0.892209C25.6815 0.399442 25.2795 0 24.7836 0H21.1918C20.6958 0 20.2938 0.399442 20.2938 0.892209V1.78442H5.23329C4.86261 0.745976 3.86444 0 2.69387 0C1.20847 0 0 1.20073 0 2.67663C0 4.15252 1.20847 5.35325 2.69387 5.35325C3.86444 5.35325 4.86261 4.60728 5.23329 3.56883H14.2608C12.3455 4.36513 10.5891 5.39884 9.14343 6.60984C8.76423 6.92746 8.71601 7.49036 9.03568 7.86705C9.21329 8.07645 9.46715 8.18423 9.72262 8.18423C9.92699 8.18423 10.1324 8.11535 10.3009 7.9742C12.8773 5.81613 16.5541 4.27484 20.2938 3.75789V4.46104C20.2938 4.95381 20.6958 5.35325 21.1918 5.35325H24.7836C25.2795 5.35325 25.6815 4.95381 25.6815 4.46104V3.75789C29.4213 4.27484 33.098 5.81613 35.6744 7.97411C35.8429 8.11526 36.0483 8.18423 36.2527 8.18414C36.5083 8.18414 36.7621 8.07636 36.9397 7.86696C37.2594 7.49036 37.2111 6.92746 36.8319 6.60984C35.3862 5.39884 33.6298 4.36513 31.7145 3.56883H40.742C41.1127 4.60728 42.1108 5.35325 43.2815 5.35325C44.7669 5.35325 45.9753 4.15252 45.9753 2.67663C45.9753 1.20073 44.7669 0 43.2815 0ZM2.69387 3.56883C2.19873 3.56883 1.79591 3.16859 1.79591 2.67663C1.79591 2.18466 2.19873 1.78442 2.69387 1.78442C3.189 1.78442 3.59182 2.18466 3.59182 2.67663C3.59182 3.16859 3.189 3.56883 2.69387 3.56883ZM23.8856 2.67663V2.75692V3.56883H22.0897V2.75692V2.67663V1.78442H23.8856V2.67663ZM43.2815 3.56883C42.7863 3.56883 42.3835 3.16859 42.3835 2.67663C42.3835 2.18466 42.7863 1.78442 43.2815 1.78442C43.7766 1.78442 44.1794 2.18466 44.1794 2.67663C44.1794 3.16859 43.7766 3.56883 43.2815 3.56883Z" fill="black"/>
</svg>
