<svg width="52" height="52" viewBox="0 0 52 52" fill="none" xmlns="http://www.w3.org/2000/svg">
<rect width="51.6813" height="52" fill="black" fill-opacity="0"/>
<rect width="31.8519" height="32.0482" fill="black" fill-opacity="0" transform="translate(9.91479 9.97583)"/>
<rect width="31.8519" height="32.0482" fill="black" fill-opacity="0" transform="translate(9.91479 9.97583)"/>
<path d="M25.8407 9.97583C17.0591 9.97583 9.91479 17.1642 9.91479 26C9.91479 34.8357 17.0591 42.0241 25.8407 42.0241C34.6223 42.0241 41.7666 34.8357 41.7666 26C41.7666 17.1642 34.6223 9.97583 25.8407 9.97583ZM25.8407 13.0227C32.4404 13.0227 37.8972 18.0362 38.6491 24.4765H13.0323C13.7842 18.0361 19.2411 13.0227 25.8407 13.0227ZM15.7467 34.0687C14.2893 32.2269 13.319 29.979 13.0323 27.5234H15.7467V34.0687ZM21.4667 38.2084C20.5122 37.8611 19.6101 37.4034 18.7749 36.851V27.5234H21.4667V38.2084ZM27.1866 38.9067C26.7441 38.9531 26.2952 38.9772 25.8407 38.9772C25.3863 38.9772 24.9373 38.9531 24.4949 38.9067V27.5234H27.1866V38.9067ZM32.9065 36.851C32.0714 37.4034 31.1692 37.8611 30.2148 38.2084V27.5234H32.9065V36.851ZM35.9347 34.0687V27.5234H38.6491C38.3624 29.979 37.3921 32.2269 35.9347 34.0687Z" fill="black"/>
<rect width="3.0282" height="5.6875" fill="black" fill-opacity="0" transform="translate(24.3267)"/>
<rect width="3.0282" height="5.6875" fill="black" fill-opacity="0" transform="translate(24.3267)"/>
<path d="M27.3549 0H24.3267V5.6875H27.3549V0Z" fill="#EFAE00"/>
<rect width="6.13816" height="6.17601" fill="black" fill-opacity="0" transform="translate(39.0449 6.53894)"/>
<rect width="6.13816" height="6.17601" fill="black" fill-opacity="0" transform="translate(39.0449 6.53894)"/>
<path d="M43.0418 6.53899L39.0449 10.5605L41.1862 12.715L45.1831 8.69343L43.0418 6.53899Z" fill="#EFAE00"/>
<rect width="5.65265" height="3.04688" fill="black" fill-opacity="0" transform="translate(46.0286 24.4766)"/>
<rect width="5.65265" height="3.04688" fill="black" fill-opacity="0" transform="translate(46.0286 24.4766)"/>
<path d="M51.6812 24.4766H46.0286V27.5234H51.6812V24.4766Z" fill="#EFAE00"/>
<rect width="6.13816" height="6.176" fill="black" fill-opacity="0" transform="translate(39.0447 39.2866)"/>
<rect width="6.13816" height="6.176" fill="black" fill-opacity="0" transform="translate(39.0447 39.2866)"/>
<path d="M41.1859 39.2866L39.0447 41.441L43.0416 45.4626L45.1828 43.3082L41.1859 39.2866Z" fill="#EFAE00"/>
<rect width="3.0282" height="5.6875" fill="black" fill-opacity="0" transform="translate(24.3267 46.3125)"/>
<rect width="3.0282" height="5.6875" fill="black" fill-opacity="0" transform="translate(24.3267 46.3125)"/>
<path d="M27.3549 46.3125H24.3267V52H27.3549V46.3125Z" fill="#EFAE00"/>
<rect width="6.13816" height="6.176" fill="black" fill-opacity="0" transform="translate(6.49731 39.2861)"/>
<rect width="6.13816" height="6.176" fill="black" fill-opacity="0" transform="translate(6.49731 39.2861)"/>
<path d="M10.4942 39.2862L6.49731 43.3077L8.63856 45.4622L12.6355 41.4406L10.4942 39.2862Z" fill="#EFAE00"/>
<rect width="5.65265" height="3.04688" fill="black" fill-opacity="0" transform="translate(0 24.4766)"/>
<rect width="5.65265" height="3.04688" fill="black" fill-opacity="0" transform="translate(0 24.4766)"/>
<path d="M5.65265 24.4766H0V27.5234H5.65265V24.4766Z" fill="#EFAE00"/>
<rect width="6.13816" height="6.176" fill="black" fill-opacity="0" transform="translate(6.49756 6.53772)"/>
<rect width="6.13816" height="6.176" fill="black" fill-opacity="0" transform="translate(6.49756 6.53772)"/>
<path d="M8.6388 6.53769L6.49756 8.69214L10.4945 12.7137L12.6357 10.5593L8.6388 6.53769Z" fill="#EFAE00"/>
</svg>
