<svg width="49" height="39" viewBox="0 0 49 39" fill="none" xmlns="http://www.w3.org/2000/svg">
<rect width="48.9559" height="38.0555" fill="black" fill-opacity="0"/>
<rect width="48.9559" height="38.0555" fill="black" fill-opacity="0"/>
<rect width="48.9559" height="38.0555" fill="black" fill-opacity="0"/>
<path d="M28.5156 0C25.1341 0 21.8232 0.903906 18.9263 2.62031C16.3422 4.15391 14.1518 6.28672 12.5469 8.82578H5.31954C2.38219 8.82578 0 11.2227 0 14.1781V23.8773C0 26.8328 2.38219 29.2297 5.31954 29.2297H12.5469C14.1518 31.7688 16.3422 33.9016 18.9263 35.4352C21.8232 37.1516 25.1341 38.0555 28.5156 38.0555C29.2726 38.0555 29.8783 37.4461 29.8783 36.6844V1.37109C29.8783 0.619531 29.2726 0 28.5156 0ZM11.9513 26.4875H5.31954C3.88619 26.4875 2.72538 25.3195 2.72538 23.8773V14.1781C2.72538 12.7359 3.88619 11.568 5.31954 11.568H11.9513V26.4875ZM27.1529 35.2625C22.0352 34.8258 17.3718 31.9312 14.6767 27.4828V10.5828C17.3718 6.13438 22.0352 3.23984 27.1529 2.80312V35.2625Z" fill="black"/>
<path d="M35.218 8.40937C34.6023 7.97265 33.7544 8.12499 33.3203 8.75468C32.8863 9.37421 33.0377 10.2273 33.6635 10.6641C36.3889 12.5734 38.014 15.7117 38.014 19.043C38.014 22.3742 36.3889 25.5125 33.6635 27.4219C33.0478 27.8586 32.8964 28.7117 33.3203 29.3312C33.5828 29.7172 34.0067 29.9203 34.4408 29.9203C34.7133 29.9203 34.9858 29.8391 35.218 29.6766C38.6701 27.2492 40.7394 23.2781 40.7394 19.0531C40.7394 14.8281 38.6701 10.8266 35.218 8.40937Z" fill="#EFAE00"/>
<path d="M40.487 2.732C39.8713 2.29528 39.0234 2.44762 38.5894 3.07731C38.1553 3.69684 38.3067 4.54997 38.9326 4.98669C43.5051 8.19606 46.2305 13.4468 46.2305 19.0328C46.2305 24.6187 43.5051 29.8797 38.9326 33.0789C38.3168 33.5156 38.1654 34.3687 38.5894 34.9882C38.8518 35.3742 39.2758 35.5773 39.7098 35.5773C39.9823 35.5773 40.2549 35.4961 40.487 35.3336C45.7864 31.6164 48.9559 25.5226 48.9559 19.0328C48.9559 12.5429 45.7965 6.44919 40.487 2.732Z" fill="#EFAE00"/>
</svg>
