<svg width="35" height="34" viewBox="0 0 35 34" fill="none" xmlns="http://www.w3.org/2000/svg">
<path d="M33.7727 17C33.7727 25.8155 26.4576 33 17.3864 33C8.31512 33 1 25.8155 1 17C1 8.18451 8.31512 1 17.3864 1C26.4576 1 33.7727 8.18451 33.7727 17Z" transform="translate(0.136475)" stroke="#333333" stroke-width="2"/>
<path d="M20.2563 1.90552C19.5112 2.22856 18.7098 2.44706 17.8692 2.54464C18.7274 2.04189 19.386 1.24641 19.6969 0.29698C18.8939 0.762754 18.004 1.10065 17.0578 1.28277C16.2998 0.493351 15.2197 0 14.0236 0C11.7289 0 9.86781 1.81976 9.86781 4.06348C9.86781 4.38197 9.90469 4.69199 9.97598 4.98957C6.52213 4.82017 3.45973 3.20254 1.40986 0.74336C1.05221 1.34338 0.847034 2.04189 0.847034 2.78646C0.847034 4.19591 1.58125 5.44019 2.69576 6.1687C2.01484 6.14779 1.3736 5.96506 0.813562 5.6599C0.813252 5.67717 0.813252 5.69445 0.813252 5.71142C0.813252 7.68027 2.24636 9.32245 4.14715 9.6955C3.79879 9.78883 3.43091 9.83823 3.05248 9.83823C2.78409 9.83823 2.52406 9.81308 2.27054 9.7658C2.79927 11.3798 4.33373 12.5547 6.1527 12.5877C4.73013 13.6778 2.93843 14.3272 0.990841 14.3272C0.656118 14.3272 0.324495 14.3081 0 14.2702C1.83819 15.4236 4.02318 16.096 6.36996 16.096C14.014 16.096 18.1943 9.90429 18.1943 4.5341C18.1943 4.35803 18.1903 4.18257 18.1823 4.00863C18.9949 3.43588 19.6994 2.7204 20.2563 1.90552Z" transform="translate(7.9162 9.20825)" fill="#333333"/>
</svg>
