<svg width="51" height="38" viewBox="0 0 51 38" fill="none" xmlns="http://www.w3.org/2000/svg">
<rect width="51" height="38" fill="black" fill-opacity="0"/>
<rect width="27.6916" height="13.9553" fill="black" fill-opacity="0" transform="translate(8.23364 24.0447)"/>
<rect width="27.6916" height="13.9553" fill="black" fill-opacity="0" transform="translate(8.23364 24.0447)"/>
<path d="M28.7758 24.0447H8.23364V27.0572H28.7758C31.0703 27.0572 32.937 28.939 32.937 31.2521C32.937 33.3117 31.2748 34.9875 29.2316 34.9875C27.4194 34.9875 25.9452 33.5013 25.9452 31.6745H22.9569C22.9569 35.1624 25.7718 38 29.2316 38C32.9225 38 35.9252 34.9728 35.9252 31.2521C35.9252 27.2779 32.718 24.0447 28.7758 24.0447Z" fill="black"/>
<rect width="51" height="21.1818" fill="black" fill-opacity="0"/>
<rect width="51" height="21.1818" fill="black" fill-opacity="0"/>
<path d="M40.8726 0C35.672 0 31.441 4.26529 31.441 9.50803H34.4293C34.4293 5.92638 37.3197 3.01249 40.8726 3.01249C44.8091 3.01249 48.0117 6.24098 48.0117 10.2094C48.0117 14.5985 44.4696 18.1694 40.1158 18.1694H0V21.1818H40.1158C46.1173 21.1818 51 16.2597 51 10.2095C51 4.58 46.4569 0 40.8726 0Z" fill="#EFAE00"/>
<rect width="20.898" height="11.7258" fill="black" fill-opacity="0" transform="translate(8.23364 3.57971)"/>
<rect width="20.898" height="11.7258" fill="black" fill-opacity="0" transform="translate(8.23364 3.57971)"/>
<path d="M23.4974 3.57971C20.5746 3.57971 18.1968 5.97685 18.1968 8.92327H21.1851C21.1851 7.63794 22.2224 6.59221 23.4974 6.59221C24.9565 6.59221 26.1434 7.78877 26.1434 9.25967C26.1434 10.9323 24.7937 12.293 23.1345 12.293H8.23364V15.3055H23.1345C26.4414 15.3055 29.1317 12.5934 29.1317 9.25967C29.1317 6.12778 26.6042 3.57971 23.4974 3.57971Z" fill="black"/>
</svg>
