<svg width="48" height="47" viewBox="0 0 48 47" fill="none" xmlns="http://www.w3.org/2000/svg">
<path d="M37.5208 8.82029L33.5887 4.91336C33.3254 4.6515 32.9134 4.60911 32.6017 4.81178L28.2324 7.65759L23.5209 5.70412L22.7982 0.67043C22.7427 0.285597 22.4109 -9.76483e-05 22.0196 2.50368e-08H15.7283C15.337 -9.76483e-05 15.0053 0.285597 14.9497 0.67043L14.2262 5.70412L9.5195 7.65759L5.14936 4.81334C4.83765 4.61067 4.42566 4.65306 4.16241 4.91492L0.230304 8.82186C-0.0335401 9.08411 -0.0756138 9.49443 0.129642 9.80406L3.0394 14.1955L2.55182 15.3152L3.99568 15.9356L4.65234 14.4291C4.75782 14.1871 4.73325 13.9085 4.58707 13.6883L1.79371 9.47666L4.82064 6.4691L9.00597 9.19302C9.22508 9.33396 9.49994 9.35916 9.74127 9.26021L15.2462 6.96997C15.5004 6.86292 15.6795 6.63134 15.7181 6.35971L16.4101 1.56277H21.3378L22.0275 6.36205C22.066 6.63368 22.2452 6.86526 22.4994 6.97231L28.0043 9.261C28.2453 9.35994 28.52 9.33474 28.7388 9.1938L32.9257 6.47144L35.9739 9.5001L33.9292 12.9382C33.8075 13.142 33.7855 13.3898 33.8694 13.6118L34.7416 15.9004L36.213 15.3472L35.4745 13.4102L37.6411 9.77046C37.8239 9.46357 37.7744 9.07258 37.5208 8.82029Z" transform="translate(4.71869)" fill="black"/>
<path d="M17.0708 2.57311L14.7116 0.228946C14.5641 0.0824357 14.3642 0 14.1556 0H3.14568C2.93708 0 2.73713 0.0824357 2.58968 0.228946L0.230421 2.57311C0.0829667 2.71962 0 2.91828 0 3.12555V18.7533C0 19.1848 0.35212 19.5347 0.78642 19.5347H16.5148C16.9491 19.5347 17.3012 19.1848 17.3012 18.7533V3.12555C17.3012 2.91828 17.2183 2.71962 17.0708 2.57311ZM11.3355 1.56277H13.83L11.0099 4.36483L9.76262 3.12555L11.3355 1.56277ZM9.89788 5.46971L8.88104 6.48004C8.7331 6.62626 8.65013 6.82512 8.65062 7.03248C8.64915 6.82717 8.56638 6.63065 8.4202 6.48551L7.40336 5.46971L8.65062 4.23043L9.89788 5.46971ZM9.11146 1.56277L8.65062 2.02066L8.18978 1.56277H9.11146ZM5.96578 1.56277L7.53862 3.12555L6.29136 4.36483L3.47126 1.56277H5.96578ZM5.60324 17.9719H1.57284V3.44904L2.35926 2.66766L5.73536 6.02215L7.03296 7.31143L5.60324 17.9719ZM7.19024 17.9719L8.64354 7.13562C8.64826 7.10271 8.65062 7.0696 8.65062 7.03639C8.65082 7.08649 8.65603 7.1365 8.66635 7.18563L10.8369 17.9719H7.19024ZM15.7284 17.9719H12.4412L10.2911 7.28956L11.5659 6.02215L14.942 2.66766L15.7284 3.44904V17.9719Z" transform="translate(14.942 27.3485)" fill="black"/>
<path d="M11.7963 0H4.71852C2.1136 0.00253951 0.00255587 2.10007 0 4.68832V9.37664C0.0039321 12.8274 2.81833 15.6238 6.29136 15.6277C9.76439 15.6238 12.5788 12.8274 12.5827 9.37664V0.781387C12.5827 0.349866 12.2306 0 11.7963 0ZM11.0099 9.37664C11.0099 11.966 8.89736 14.065 6.29136 14.065C3.68536 14.065 1.57284 11.966 1.57284 9.37664V6.25109H7.8642C9.02653 6.2508 10.1475 5.82201 11.0099 5.04776V9.37664ZM7.8642 4.68832H1.57284C1.57284 2.96214 2.98122 1.56277 4.71852 1.56277H11.0099C11.0099 3.28895 9.6015 4.68832 7.8642 4.68832Z" transform="translate(17.3012 10.158)" fill="black"/>
<path d="M12.3523 2.57311L9.99304 0.228946C9.84559 0.0824357 9.64564 0 9.43704 0H3.14568C2.93708 0 2.73713 0.0824357 2.58968 0.228946L0.230421 2.57311C0.0829667 2.71962 0 2.91828 0 3.12555V15.6277C0 16.0593 0.35212 16.4091 0.78642 16.4091H11.7963C12.2306 16.4091 12.5827 16.0593 12.5827 15.6277V3.12555C12.5827 2.91828 12.4998 2.71962 12.3523 2.57311ZM11.0099 14.8463H7.07778V3.12555H5.50494V14.8463H1.57284V3.44904L3.14568 1.88627L4.94894 3.67799L5.50494 3.12555L6.06094 2.57311L5.0441 1.56277H7.60075L6.5383 2.55592L7.07778 3.12555L7.61727 3.69518L9.49209 1.94097L11.0099 3.44904V14.8463Z" transform="translate(34.6025 30.4741)" fill="black"/>
<path d="M5.4916 0H3.94471C1.78009 0.00429763 0.0243094 1.74288 0.0126114 3.89365L2.66064e-05 7.80605C-0.00862402 10.391 2.09328 12.4935 4.69496 12.5022C4.70017 12.5022 4.70547 12.5022 4.71068 12.5022C7.31147 12.4992 9.41938 10.4058 9.4237 7.82168V3.90693C9.42114 1.75031 7.66212 0.00253951 5.4916 0ZM1.58545 3.89912C1.58968 2.61755 2.62903 1.57684 3.91876 1.56277C3.91886 2.84737 2.87833 3.89277 1.58545 3.90693V3.89912ZM7.85086 7.81934C7.84781 9.54034 6.44513 10.9351 4.71304 10.9394C2.98007 10.9394 1.57523 9.54356 1.57523 7.82168C1.57523 7.81904 1.57523 7.8165 1.57523 7.81387L1.58309 5.46971C2.81246 5.46238 3.96762 4.88416 4.70518 3.90693C5.44776 4.8907 6.61323 5.46971 7.85086 5.46971V7.81934ZM5.4916 1.56277C6.7946 1.56277 7.85086 2.61227 7.85086 3.90693C6.54786 3.90693 5.4916 2.85743 5.4916 1.56277Z" transform="translate(36.1887 17.1905)" fill="black"/>
<path d="M12.3523 2.57311L9.99304 0.228946C9.84559 0.0824357 9.64564 0 9.43704 0H3.14568C2.93708 0 2.73714 0.0824357 2.58968 0.228946L0.230421 2.57311C0.0829673 2.71962 0 2.91828 0 3.12555V15.6277C0 16.0593 0.35212 16.4091 0.78642 16.4091H11.7963C12.2306 16.4091 12.5827 16.0593 12.5827 15.6277V3.12555C12.5827 2.91828 12.4998 2.71962 12.3523 2.57311ZM11.0099 14.8463H7.07778V3.12555H5.50494V14.8463H1.57284V3.44904L3.14568 1.88627L4.94894 3.67799L5.50494 3.12555L6.06094 2.57311L5.0441 1.56277H7.60075L6.5383 2.55592L7.07778 3.12555L7.61727 3.69518L9.49209 1.94097L11.0099 3.44904V14.8463Z" transform="translate(-6.10352e-05 30.4741)" fill="black"/>
<path d="M5.4916 0H3.94471C1.78009 0.00429763 0.0243074 1.74288 0.0126094 3.89365L2.66064e-05 7.80605C-0.00862402 10.391 2.09328 12.4935 4.69495 12.5022C4.70016 12.5022 4.70547 12.5022 4.71068 12.5022C7.31147 12.4992 9.41937 10.4058 9.4237 7.82168V3.90693C9.42114 1.75031 7.66212 0.00253951 5.4916 0ZM5.4916 1.56277C6.4878 1.56688 7.37409 2.19228 7.70616 3.12555H6.27802C5.28182 3.12144 4.39553 2.49604 4.06346 1.56277H5.4916ZM2.34592 2.19413V2.33713C2.3469 2.54507 2.26325 2.74462 2.11392 2.89035C2.01169 2.98919 1.88321 3.05698 1.74352 3.0857C1.8722 2.74618 2.07844 2.44105 2.34592 2.19413ZM7.85086 7.82168C7.84653 9.54181 6.44425 10.9351 4.71304 10.9394C2.98007 10.9394 1.57523 9.54356 1.57523 7.82168C1.57523 7.81904 1.57523 7.8165 1.57523 7.81387L1.58545 4.68207C2.20112 4.67865 2.79064 4.43408 3.22592 4.00148C3.35027 3.87636 3.46018 3.73806 3.55386 3.58891C4.28356 4.29323 5.26069 4.68754 6.27802 4.68832H7.85086V7.82168Z" transform="translate(1.58624 17.1905)" fill="black"/>
</svg>
