<svg width="35" height="34" viewBox="0 0 35 34" fill="none" xmlns="http://www.w3.org/2000/svg">
<path d="M33.7727 17C33.7727 25.8155 26.4576 33 17.3864 33C8.31512 33 1 25.8155 1 17C1 8.18451 8.31512 1 17.3864 1C26.4576 1 33.7727 8.18451 33.7727 17Z" transform="translate(0.227295)" stroke="#333333" stroke-width="2"/>
<path d="M17.6916 1.12924C17.027 0.327171 15.8002 0 13.4571 0H4.95181C2.55512 0 1.30746 0.348276 0.645447 1.2022C0 2.03478 0 3.26153 0 4.95937V8.19545C0 11.4847 0.765818 13.1548 4.95181 13.1548H13.4572C15.4891 13.1548 16.615 12.8661 17.3434 12.1582C18.0904 11.4324 18.4091 10.2472 18.4091 8.19545V4.95937C18.4091 3.16885 18.3591 1.93487 17.6916 1.12924ZM11.8187 7.02418L7.95647 9.07374C7.87012 9.11956 7.7757 9.1423 7.6814 9.1423C7.57463 9.1423 7.46809 9.11311 7.37373 9.05511C7.19605 8.94579 7.08756 8.75024 7.08756 8.53933V4.45336C7.08756 4.2428 7.19576 4.04744 7.37308 3.93806C7.55046 3.82868 7.77107 3.8212 7.9551 3.91828L11.8173 5.95463C12.0138 6.05822 12.1372 6.2642 12.1375 6.48893C12.1378 6.71383 12.0149 6.92011 11.8187 7.02418Z" transform="translate(8.40894 10.1191)" fill="#333333"/>
</svg>
